<?xml version="1.0" standalone="no"?>
<!DOCTYPE svg PUBLIC "-//W3C//DTD SVG 20010904//EN"
 "http://www.w3.org/TR/2001/REC-SVG-20010904/DTD/svg10.dtd">
<svg version="1.0" xmlns="http://www.w3.org/2000/svg"
 width="16.000000pt" height="16.000000pt" viewBox="0 0 16.000000 16.000000"
 preserveAspectRatio="xMidYMid meet">
<metadata>
Created by potrace 1.11, written by Peter Selinger 2001-2013
</metadata>
<g transform="translate(0.000000,16.000000) scale(0.006250,-0.006250)"
fill="#000000" stroke="none">
<path d="M0 1280 l0 -1280 1280 0 1280 0 0 1280 0 1280 -1280 0 -1280 0 0
-1280z m2480 15 l0 -1205 -1205 0 -1205 0 0 1205 0 1205 1205 0 1205 0 0
-1205z"/>
<path d="M510 1306 l0 -386 30 0 30 0 2 320 3 320 145 -248 c105 -178 151
-248 165 -250 16 -2 46 42 168 250 l147 252 0 -322 0 -322 35 0 35 0 0 386 0
385 -36 -3 c-36 -3 -37 -3 -192 -272 -105 -182 -158 -264 -163 -255 -4 8 -75
129 -156 269 -142 244 -149 255 -181 258 l-32 3 0 -385z"/>
<path d="M1701 1668 c-5 -13 -77 -184 -160 -380 -83 -196 -151 -359 -151 -363
0 -3 14 -5 32 -3 31 3 34 8 84 123 l51 120 180 3 180 2 53 -125 53 -125 34 0
c19 0 33 4 31 9 -1 4 -75 177 -163 385 -156 368 -160 376 -187 376 -20 0 -31
-7 -37 -22z m122 -263 l75 -180 -155 -3 c-86 -1 -158 0 -161 3 -3 2 30 88 74
190 43 101 81 181 85 177 4 -4 41 -88 82 -187z"/>
</g>
</svg>
